<?xml version="1.0" standalone="no"?><!DOCTYPE svg PUBLIC "-//W3C//DTD SVG 1.1//EN" "http://www.w3.org/Graphics/SVG/1.1/DTD/svg11.dtd"><svg t="1700533860898" class="icon" viewBox="0 0 1024 1024" version="1.1" xmlns="http://www.w3.org/2000/svg" p-id="1027" xmlns:xlink="http://www.w3.org/1999/xlink" width="200" height="200"><path d="M432.00000031 711.99999969l0-399.99999938a79.99999969 79.99999969 0 1 1 159.99999938 0L591.99999969 711.99999969a79.99999969 79.99999969 0 1 1-159.99999938 0z m279.99999938 160.00000031l0-720a40.00000031 40.00000031 0 0 1 80.00000062-1e-8L792.00000031 872.00000001a40.00000031 40.00000031 0 0 1-80.00000062-1e-8zM231.99999969 872.00000001l0-720.00000002a40.00000031 40.00000031 0 0 1 80.00000062 1e-8L312.00000031 872a40.00000031 40.00000031 0 1 1-80.00000062 1e-8z" p-id="1028"></path></svg>