<svg xmlns="http://www.w3.org/2000/svg" xmlns:xlink="http://www.w3.org/1999/xlink" fill="none" version="1.1" width="58.83514404296875" height="37.368858337402344" viewBox="0 0 58.83514404296875 37.368858337402344"><g><g><path d="M58.6747,24.27579L47.9809,24.27579L47.9809,28.1374L54.845,28.1374C53.637100000000004,32.6435,48.6616,34.8391,44.63531,32.642700000000005C40.60902,30.4464,39.61029,24.991709999999998,42.58591,21.449930000000002C45.56153,17.90817,50.9756,18.10746,53.6954,21.85888L58.013000000000005,21.85888C57.463899999999995,20.53685,56.672,19.335169999999998,55.6804,18.31908C50.629599999999996,13.08811,42.10858,14.194571,38.49148,20.55106C34.87438,26.9075,38.13327,35.0484,45.06548,36.9732C51.9977,38.897999999999996,58.8236,33.5573,58.8351,26.1997C58.835300000000004,25.5549,58.7817,24.91124,58.6747,24.27579Z" fill="#FFFFFF" fill-opacity="1"/></g><g><path d="M29.5907,3.89014C34.945,3.89945,39.4748,7.94699,40.2111,13.3798C41.3022,12.6313,42.487,12.0371,43.7333,11.6133C42.1237,4.22077,35.3391,-0.744667,27.9905,0.0917487C20.642,0.928185,15.0868,7.29819,15.1006,14.8724C15.1006,15.1188,15.1006,15.3653,15.1006,15.6118C11.7229,14.1331,7.84515,14.4986,4.78772,16.5841L4.74093,16.6183L4.65404,16.6799L4.60725,16.6799L4.52036,16.7415L4.4669,16.7826L4.33991,16.8785L4.27976,16.9196L4.14607,17.0291L4.05249,17.0976L4.01239,17.1318L3.93888,17.1934C1.59995,19.1691,0.172843,22.0557,0.00220286,25.1562C0.00220286,25.2452,0.00220286,25.3343,0.00220286,25.4301L0.00220286,25.4643C0.00220286,25.567,0.00220286,25.6697,0.00220286,25.7656C0.00220286,25.8615,0.00220286,25.9368,0.00220286,26.0258L0.00220286,26.0805C0.00220286,26.149,0.00220286,26.2175,0.00220286,26.2859L0.00220286,26.3475C0.00220286,26.4297,0.00220286,26.5119,0.00220286,26.5872C0.00220286,26.6693,0.00220286,26.7584,0.00220286,26.8405C-0.000734288,26.8632,-0.000734288,26.8863,0.00220286,26.909L0.00220286,27.087Q0.00220286,27.1486,0.00220286,27.176L0.00220286,27.3335C0.00542557,27.3654,0.00542557,27.3975,0.00220286,27.4294C0.00220286,27.4978,0.00220286,27.5731,0.035613,27.6416C0.0690231,27.7101,0.035613,27.7375,0.035613,27.7786C0.0383461,27.8082,0.0383461,27.838,0.035613,27.8676C0.035613,27.9223,0.035613,27.9771,0.035613,28.0251L0.035613,28.0798C0.32633,29.4887,0.882553,30.826,1.67312,32.0167L1.71322,32.0783L1.887,32.3248C2.01399,32.5028,2.14767,32.6808,2.28802,32.852L2.32143,32.8862L2.48852,33.0916L2.54198,33.1464C2.59544,33.2149,2.65561,33.2765,2.71576,33.345L2.74917,33.386C4.55889,35.3515,7.0018,36.5797,9.62666,36.8436L9.93412,36.8436L10.1079,36.8436L10.2616,36.8436L10.4154,36.8436L38.5602,36.8436C38.3731,36.6725,38.1859,36.4945,38.0055,36.3096C37.0429,35.3207,36.2176,34.2011,35.5526,32.9821L10.2817,32.9821C9.98976,32.9565,9.69964,32.9131,9.41279,32.852L9.25239,32.8178C9.03718,32.7698,8.82512,32.708,8.61744,32.6329L8.57734,32.6329L8.45035,32.585L8.40355,32.585L8.27657,32.537L8.23647,32.537C8.03596,32.4549,7.83544,32.3659,7.63494,32.2632C6.57824,31.7047,5.67166,30.8888,4.99489,29.8873C4.36852,28.9464,3.96778,27.8673,3.82525,26.7378L3.82525,26.683C3.82856,26.6352,3.82856,26.5871,3.82525,26.5393C3.82525,26.4982,3.82525,26.4571,3.82525,26.416C3.82525,26.375,3.82525,26.3133,3.82525,26.2654C3.82525,26.2175,3.82525,26.1559,3.82525,26.0942L3.82525,26.0121C3.82525,25.9368,3.82525,25.8615,3.82525,25.7861C3.82191,25.72,3.82191,25.6537,3.82525,25.5876C3.82178,25.5237,3.82178,25.4597,3.82525,25.3959C3.8217,25.332,3.8217,25.268,3.82525,25.2042L3.82525,25.0193L3.82525,24.8276C3.82201,24.7637,3.82201,24.6997,3.82525,24.6359C3.89038,24.2458,3.98422,23.8613,4.10597,23.4856L4.10597,23.4377L4.14607,23.3076L4.17948,23.2323C4.17948,23.1981,4.17948,23.1707,4.17948,23.1433L4.21958,23.0406L4.21958,22.979C4.2346,22.9367,4.25246,22.8955,4.27305,22.8557C4.62416,22.0658,5.11087,21.3469,5.71002,20.7332L5.80361,20.6374L5.8504,20.5963L5.9306,20.5141L5.99744,20.4594L6.06428,20.3978L6.19127,20.2813C9.16669,17.6807,13.6351,18.0358,16.1833,21.0756L16.3237,21.2467L16.3571,21.2878C16.3863,21.3283,16.4175,21.3671,16.4507,21.4042L16.5108,21.4864L16.5643,21.5685C16.6505,21.6828,16.7308,21.8016,16.8049,21.9246L16.8049,21.9656L16.8784,22.0957C17.8808,23.7955,18.1609,25.8413,17.6537,27.758L21.5169,27.758C21.6186,27.1289,21.67,26.4923,21.6706,25.8546C21.6751,23.8328,21.1389,21.8485,20.12,20.117C19.5012,18.9534,19.0935,17.6845,18.9169,16.3718C18.8502,15.8663,18.8167,15.3584,18.8167,14.8518C18.8351,8.77624,23.6599,3.8674,29.5907,3.89014Z" fill="#FFFFFF" fill-opacity="1"/></g></g></svg>